<?xml version="1.0" encoding="utf-8"?>
<!-- Generator: Adobe Illustrator 19.2.0, SVG Export Plug-In . SVG Version: 6.00 Build 0)  -->
<svg version="1.1" xmlns="http://www.w3.org/2000/svg" xmlns:xlink="http://www.w3.org/1999/xlink" x="0px" y="0px"
	 viewBox="0 0 1600 1600" style="enable-background:new 0 0 1600 1600;" xml:space="preserve">
<style type="text/css">
	.st0{fill:#F1F1F1;}
	.st1{fill:#010101;}
	.st2{fill:#FBC83B;}
	.st3{fill:#FBE909;}
	.st4{fill:#989898;}
	.st5{fill:#CDCCCC;}
	.st6{fill:#2B2627;}
	.st7{fill:#D7C727;}
	.st8{fill:#F2E540;}
	.st9{fill:#F7D95A;}
	.st10{fill:#F8B53D;}
	.st11{fill:#F8BB2F;}
	.st12{fill:#F8BE3C;}
	.st13{fill:#F3B01C;}
	.st14{fill:#F8963F;}
	.st15{fill:#88212E;}
	.st16{fill:#C1282D;}
	.st17{fill:#ED2224;}
	.st18{fill:#0167A2;}
</style>
<g id="Fondo_1_">
	<ellipse class="st0" cx="800.4" cy="800.1" rx="787.5" ry="786.2"/>
</g>
<g id="Borde_1_">
	<g>
		<path d="M800,9.5C363.4,9.5,9.5,363.4,9.5,800c0,436.6,353.9,790.5,790.5,790.5c436.6,0,790.5-353.9,790.5-790.5
			C1590.5,363.4,1236.6,9.5,800,9.5z M799.5,1581.4c-431.6,0-781.4-349.9-781.4-781.4c0-431.6,349.9-781.4,781.4-781.4
			c431.6,0,781.4,349.9,781.4,781.4C1580.9,1231.6,1231.1,1581.4,799.5,1581.4z"/>
		<path class="st1" d="M117.9,968.4c-3,0.7-5.9,1.5-8.8,2.1c13.6,54.7,33.5,107,59,155.9c2.8-1.1,5.5-2.4,8.2-3.8
			C151.1,1074.3,131.4,1022.6,117.9,968.4z"/>
		<path class="st1" d="M88.3,798.9c0,45.6,4.3,90.1,12.5,133.3c3-0.5,5.9-1,8.9-1.5C101.6,888,97.3,844,97.3,798.9
			c0-12.8,0.4-25.5,1-38.1c-3-0.1-6-0.1-9-0.3C88.6,773.2,88.3,786,88.3,798.9z"/>
		<path class="st1" d="M1509.5,798.9c0-9.4-0.2-18.7-0.5-27.9c-3,0-6-0.1-9-0.1c0.4,9.3,0.6,18.6,0.6,28c0,41.9-3.7,82.9-10.7,122.7
			c3,0.4,5.9,1.1,8.8,1.8C1505.8,883,1509.5,841.4,1509.5,798.9z"/>
		<path class="st1" d="M1480.6,965.6c-14.1,57.9-35.4,112.9-62.8,164.2c2.8,1.2,5.5,2.5,8.1,3.9c27.8-52,49.4-108,63.6-166.7
			C1486.6,966.5,1483.6,966,1480.6,965.6z"/>
		<path class="st1" d="M1489.6,934.5c-5.9,0-10.7,4.8-10.7,10.7c0,5.9,4.8,10.7,10.7,10.7c5.9,0,10.7-4.8,10.7-10.7
			C1500.3,939.3,1495.5,934.5,1489.6,934.5z M1489.6,948.9c-2,0-3.7-1.7-3.7-3.7c0-2,1.7-3.7,3.7-3.7c2,0,3.7,1.7,3.7,3.7
			C1493.3,947.3,1491.6,948.9,1489.6,948.9z"/>
		<path class="st1" d="M108.6,939.6c-5.9,0-10.7,4.8-10.7,10.7c0,5.9,4.8,10.7,10.7,10.7c5.9,0,10.7-4.8,10.7-10.7
			C119.3,944.4,114.5,939.6,108.6,939.6z M108.6,954c-2,0-3.7-1.7-3.7-3.7c0-2,1.7-3.7,3.7-3.7c2,0,3.7,1.7,3.7,3.7
			C112.3,952.3,110.6,954,108.6,954z"/>
	</g>
</g>
<g id="DIP">
	<path class="st2" d="M1226.1,749.7c10.4-16.1-8.7-42-8.7-42c0.4,0.2,0.7,0.4,1.1,0.5c-6.3-6.5-27.9-27.3-44.8-25.8c0,0,0,0,0,0
		c0,0.1-3.7,9.9-3.7,9.9C1202.5,709.3,1218.5,732.1,1226.1,749.7z"/>
	<g>
		<path class="st3" d="M862.2,804.1l32.9-152.2l1-4.8l2.7-12.4l8.3-38.5l31.5-145.7l-290.2,50.2l-82.4,362.1
			c296-58.8,296-58.8,296-58.8L862.2,804.1z"/>
	</g>
	<g>
		<path class="st3" d="M877.4,833.4l-298.9,73.3l228.3,165.5l119.2-38.8c-9.8-36.7,14.8-46.1,14.8-46.1
			c46.6-16.2,72.1,17.8,72.1,17.8l112.3-36.6L877.4,833.4z"/>
	</g>
	<g>
		<polygon class="st4" points="1145.1,1011.4 1124.6,1051.6 1135.7,1057.5 1135.7,1095.2 1150.9,1101.5 1150.9,1062.7 
			1166.1,1067.5 1166.1,975.8 1134.4,988.3 		"/>
	</g>
	<g>
		<polygon class="st5" points="1134.4,988.3 1166.1,975.8 1135.7,957 1117.3,964.2 1125.2,968.5 		"/>
	</g>
	<g>
		<polygon class="st4" points="976.3,887.3 976.3,879.5 968.4,883 		"/>
	</g>
	<g>
		<polygon class="st5" points="976.3,879.5 943.8,857.5 932.2,863.3 968.4,883 		"/>
	</g>
	<g>
		<polygon class="st4" points="1067.6,937.1 1067.6,924.3 1055.4,930.4 		"/>
	</g>
	<g>
		<polygon class="st5" points="1067.6,924.3 1035.2,902.3 1018.8,910.5 1055.4,930.4 		"/>
	</g>
	<g>
		<polygon class="st5" points="868.5,774.7 883.3,774.7 892.7,731.8 877.8,731.8 		"/>
	</g>
	<g>
		<polygon class="st4" points="892.7,731.8 880.3,720.4 877.8,731.8 		"/>
	</g>
	<g>
		<polygon class="st5" points="886.8,690 902.9,690 909.1,661.7 895.1,651.8 		"/>
	</g>
	<g>
		<polygon class="st4" points="942.3,528.7 925.1,512.9 921.7,528.7 		"/>
	</g>
	<g>
		<polygon class="st5" points="912.4,571.6 932.9,571.6 942.3,528.7 921.7,528.7 		"/>
	</g>
	<g>
		<polygon class="st4" points="930.1,436.8 957.6,431.2 895.6,378.2 890.2,389.9 863,368.4 857.3,377.3 884.3,399.6 885.2,402.1 
			916.8,415.4 		"/>
	</g>
	<g>
		<polygon class="st5" points="938.6,450.4 932.8,477.3 950.3,477.3 957.6,431.2 930.1,436.8 		"/>
	</g>
	<path class="st4" d="M448.1,637.6l-3.5,14.1c4.4-0.6,8.9-1.3,13.4-2L448.1,637.6z"/>
	<g>
		<polygon class="st6" points="590.2,580.3 590.2,580.3 582.5,615.2 		"/>
		<path class="st6" d="M802,1120.3c0,0-270-204.6-280-211.6c-7.5-5.2-5.2-13.6-5.2-13.6l64-272.4l34.9-157.5l-17.5-32.4
			c0,0-110.5,441.3-111.9,446.1c-7.3,26.2-5,33.2-5,33.2c3.1,12.6,17,22.5,17,22.5L811,1165.4L802,1120.3z"/>
	</g>
	<g>
		<polygon class="st5" points="774.4,1099.3 730.9,1066.2 672.8,1087.9 722,1122.4 		"/>
	</g>
	<g>
		<polygon class="st4" points="672.8,1172.7 687.4,1186.3 687.4,1232.4 707.3,1247.1 707.3,1202 722,1211.4 722,1122.4 722,1122.4 
			672.8,1087.9 		"/>
	</g>
	<g>
		<polygon class="st5" points="682.9,1030.2 639.3,996.7 583.4,1017.7 632.6,1052.2 		"/>
	</g>
	<g>
		<polygon class="st4" points="583.4,1102.5 598.1,1116.1 598.1,1162.2 618,1176.8 618,1131.8 632.6,1141.2 632.6,1052.2 
			583.4,1017.7 		"/>
	</g>
	<g>
		<polygon class="st5" points="554.8,933 497.3,954.4 546.5,989 598.8,966.1 		"/>
	</g>
	<g>
		<polygon class="st4" points="497.3,954.4 497.3,961.6 497.3,1039.2 511.9,1052.8 511.9,1098.9 531.8,1113.6 531.8,1068.5 
			546.5,1078 546.5,989 		"/>
	</g>
	<g>
		<polygon class="st4" points="464.2,753.9 454.9,741.2 450.7,755.9 426.7,726.5 422.5,743.3 445.5,771.6 443.1,784.9 445.7,788 
			483.2,831.3 489.5,788.3 		"/>
	</g>
	<g>
		<polygon class="st5" points="543.2,782.6 489.5,788.3 483.2,831.3 533.4,824 		"/>
	</g>
	<g>
		<polygon class="st5" points="564.9,690 511,699.4 504.7,742.3 554.7,733.6 		"/>
	</g>
	<g>
		<path class="st4" d="M503.1,688.6c-12.6,1.8-25.5,3.2-38,4.4l-0.5,2.9l19.1,22.1l21.1,24.3l6.3-42.9L503.1,688.6z"/>
	</g>
	<g>
		<polygon class="st4" points="501.5,542.6 497.4,557.3 473.3,527.9 469.1,544.7 492.1,573 489.7,586.3 529.8,632.7 536.1,589.7 		
			"/>
	</g>
	<g>
		<polygon class="st5" points="600.1,535.7 609.9,490.9 556.9,500.3 550.6,543.3 		"/>
	</g>
	<g>
		<polygon class="st4" points="522.3,453.2 518.1,467.9 494,438.5 489.9,455.3 512.9,483.6 510.4,496.9 550.6,543.3 556.9,500.3 		
			"/>
	</g>
	<g>
		<polygon class="st5" points="536.1,589.7 529.8,632.7 529.9,632.7 580.7,622.8 582.5,615.2 590.2,580.3 		"/>
	</g>
	<g>
		<path class="st7" d="M579.2,629.2c12,9.8,27.5,29-9.1,43.9c-0.5,0.2-0.9,0.4-1.4,0.5l-52,221.5c0,0-2.2,8.5,5.2,13.6
			c0,0,280,211.6,280,211.6l4.8-48.2L578.5,906.7l13.6-24.1L566,862.7l82.4-362.1l-32.7-35.3L579.2,629.2z"/>
	</g>
	<g>
		<polygon class="st8" points="936.9,1077.5 926,1033.4 806.8,1072.2 802,1120.3 		"/>
	</g>
	<g>
		<path class="st7" d="M802,1120.3l9,45l117.6-37.8c0,0,0-0.1,0.1-0.3l8.2-49.7L802,1120.3z"/>
	</g>
	<g>
		<path class="st6" d="M1012.9,1005c0,0-25.5-34-72.1-17.8c0,0-24.6,9.4-14.8,46.1l10.9,44.2l-8.2,49.7c0.6-3.5,6.2-32.4,26.9-38.8
			c22-6.8,29.6-4.6,53.8,13.1l0,0l20.7-53.6L1012.9,1005z"/>
	</g>
	<g>
		<polygon class="st7" points="1030,1047.9 1009.3,1101.5 1116.8,1066.9 1145.1,1011.4 		"/>
	</g>
	<g>
		<polygon class="st8" points="1145.1,1011.4 1134.4,988.3 1125.2,968.5 1012.9,1005 1030,1047.9 		"/>
	</g>
	<g>
		<polygon class="st7" points="916.8,415.4 860,391.4 598.1,432.9 615.6,465.3 		"/>
	</g>
	<g>
		<polygon class="st8" points="916.8,415.4 615.6,465.3 648.3,500.5 938.6,450.4 		"/>
	</g>
	<g>
		<path class="st9" d="M449.2,862.8c-2.5-11.1-9.9-19-18.4-13.7c-6.5,4.1-12.8,5.5-18.3,5.6C416.5,873.7,440.2,866.3,449.2,862.8z"
			/>
		<path class="st10" d="M393.7,861.6c-8.6,7.1-11.8,13.8-12.9,17c23,22.4,42.1,20.7,42.1,20.7c18.5-0.9,26.1-13.2,27.1-25.6
			C435.5,880.7,415.1,883.1,393.7,861.6z"/>
		<path class="st2" d="M449.2,862.8c-9.1,3.6-32.7,10.9-36.7-8.1c-2.6,0-5.1-0.3-7.3-0.7c-4.6,2.5-8.4,5.1-11.5,7.7
			c21.3,21.5,41.7,19.1,56.2,12C450.3,869.9,450,866.2,449.2,862.8z"/>
		<path class="st10" d="M318.6,903.7c0,0-4.3,9.9-5.3,11.4c-4.9,20.3-19.7,48.2-19.7,48.2c-29.1,51.8-17.8,57.6-17.8,57.6
			c3.9,3.2,7.6,4,10.9,5C326.9,966.7,319.3,901.7,318.6,903.7z"/>
		<path class="st10" d="M336.1,949.7l-2.7,25c-1,47.1,22,46.1,22,46.1c4.7-0.4,8.5-1.4,11.6-2.9c-1.5-24.5-5.4-70.9-13.5-100.9
			C353.5,917,345.7,895.5,336.1,949.7z"/>
		<path class="st2" d="M233.3,931.7c21.1,30.6,57.8-36.7,63.9-48.7C294.1,887.6,268.4,917,233.3,931.7z"/>
		<path class="st10" d="M356.6,657.1c-20.6,2.8-19.8,20.4-19.8,20.4c7.3,94.3-23.2,166.7-23.2,166.7c-5.2,23.5-67,58.2-67,58.2
			c-23,11.5-16.8,23-16.8,23c1.1,2.3,2.3,4.4,3.5,6.1c35.2-7,56.3-36.1,59.4-40.7c0.7-1.3,1-2.1,1-2.1
			C279,929.7,239.2,958,239.2,958c-5.3,5.2-4.7,11.3-1.6,16.3c96.7-39.2,118.7-191.5,121-289.6C358.6,673.2,357.8,664.2,356.6,657.1
			z"/>
		<path class="st10" d="M579.2,629.2c-2.6-2.1-5-3.8-6.7-4.9l-10.3,2c-1.4,0.5-2.9,1.1-4.5,1.6c-18.8,24.6-90.1,54.3-124.1,67.5
			c9.9-0.7,20.5-1.5,31.5-2.5c12.5-1.2,25.4-2.6,38-4.4c10.2-1.4,20.3-3.1,29.7-5c13.6-2.8,26-6,36-10c0.5-0.2,0.9-0.4,1.4-0.5
			C606.7,658.2,591.2,639,579.2,629.2z"/>
		<path class="st2" d="M557.7,628c-3.4,1.2-7.2,2.3-11.3,3.5c-23.2,6.6-56.6,13.2-88.4,18.2c-4.5,0.7-9,1.4-13.4,2
			c-33.6,4.8-63.2,7.2-73.5,5.8c-4.8-0.7-8.9-0.8-12.4-0.5c0,0.2,0,0.4,0,0.4s0-0.1,0-0.4c-0.7,0.1-1.4,0.1-2.1,0.2
			c1.2,7.1,2,16,2,27.5c0,0,0-0.1,0-0.1c0-0.5,0-1.1,0-1.6c0-0.1,0-0.2,0-0.3c0-0.5,0-1,0-1.5c0-0.1,0-0.1,0-0.2c0-0.5,0-1.1,0-1.6
			c0-0.1,0-0.2,0-0.3c0-0.5,0-1.1,0-1.6c0,0.5,0,1.1,0,1.6c0,0.1,0,0.2,0,0.3c0,0.5,0,1.1,0,1.6c0,0.1,0,0.1,0,0.2c0,0.5,0,1,0,1.5
			c0,0.1,0,0.2,0,0.3c0,0.5,0,1.1,0,1.6c0,0,0,0.1,0,0.1c0,0,0,0,0,0c-2.3,98.2-24.3,250.5-121,289.7c3.7,6,10.8,10.4,15.3,9.9
			c1-0.1-0.1,0-0.1,0c42-2.8,58.2-59.6,61.2-72c0.2-0.8,0.4-1.6,0.5-2.4c0,0-0.2,0.9-0.5,2.4c-1.3,5.4-2.9,10.6-4.6,15.6
			c1.4-2,9.5-13.7,9.2-23.3c-0.3-9.6,8.2,62.1-31.8,121.3c14.9,4.2,22.6-5,22.6-5c16-14.6,25.5-62.2,28.2-84.3l1.2-11
			c0,0-0.3,4.3-1.2,11l-1.4,13.2c9.6-54.2,17.4-32.7,17.4-32.7c8.2,30.1,12,76.5,13.5,100.9c16.5-6,9.7-38.2,9.7-38.2
			c-9.4-70.2,3.8-101.3,3.8-101.3c0.1,0.1,0.1,0.1,0.2,0.2c1.6-4.4,7-15.1,24.4-24.7c-7.3-1.5-12-4.9-12-4.9
			c-14.7-32.5-37.7-27.2-37.7-27.2c22-22,26.2-123.6,26.2-123.6c6.5-0.4,26.6-1,52-2.8C467.6,682.3,538.9,652.5,557.7,628z"/>
		<path class="st11" d="M310.2,881.6c6.3,14.7,35.6,20.2,35.6,20.2l4.2-8.4c-18.2-2.8-32.8-17.1-32.8-17.1
			C307.9,871.7,310.2,881.6,310.2,881.6z"/>
	</g>
	<path class="st12" d="M1126,676.6c3.5,0.8,6.9,1.7,10.1,2.6c0.4-2.4,1.2-5.5,2.7-8.4c3.1-5.9,8.7-12.2,9.4-23.3l31.4-28.9
		c-18-15.3-27.2-1-27.2-1c-5.8,10.4-14.8,16.3-26.4,20.2C1110.6,679,1126,676.6,1126,676.6z"/>
	<path class="st2" d="M1135.7,682.9c0,0.1,0,0.2,0,0.2c0,0,0,0,0,0c0,0,0,0.1,0,0.1c0,0,0,0,0,0c0,0,0,0.1,0,0.1c0,0,0,0,0,0
		c0,0,0,0.1,0,0.1l0,0c0,0,0,0,0,0.1c0,0,0,0,0,0c0,0,0,0,0,0.1c0,0,0,0,0,0c0,0,0,0,0,0.1l0,0c0,0,0,0,0,0c0,0,0,0,0,0
		c0,0.1,0,0.1,0,0.1c4.2,16,15.9,15.2,15.9,15.2c5.4-0.2,14.9-3.2,18.1-6.4c0,0,0.3-0.3,0.3-0.3c11.2-21.9,9.7-73.7,9.7-73.7
		c-32.5,13.5-34,32.3-34,32.3c-0.9,11.2-3.7,14-6.8,19.9c-1.5,2.8-2.3,5.9-2.7,8.4C1135.9,680.8,1135.8,682.1,1135.7,682.9
		C1135.7,682.9,1135.7,682.9,1135.7,682.9z"/>
	<path class="st9" d="M1157.7,659.1c0,0-3.8,21.9,14.3,27.9c0.1,0,0.1,0,0.2,0c0-0.1,3.3-8,5.6-28.1
		C1168.2,654.7,1157.7,659.1,1157.7,659.1z"/>
	<path class="st13" d="M1092.7,691.5c-106.5-9.6-109.3-13.8-109.3-13.8c-11.8-2.7-56-41.3-80.3-63.1l-4.3,20l-2.7,12.4l-1,4.8
		l14,9.8l68.5,48.1c6.3,5.4,17.1,4.4,17.1,4.4l99.8-3.4c1.2-6.2,1.4-12.6,1.4-12.6C1096.2,691.9,1092.7,691.5,1092.7,691.5z"/>
	<path class="st2" d="M1136.7,742.6c-4-7.1-11.1-22.5-11.5-43.1h0c-20.9,0.2-31.8-15-36.6-24.7c0,0.3,0,0.4,0,0.4
		c-5.2-4.2-90.1-5.2-90.1-5.2c-30.9-32.6-86.9-70.2-86.9-70.2l-4.4-3.7l-4,18.5c24.3,21.8,68.5,60.4,80.3,63.1
		c0,0,2.8,4.2,109.3,13.8c0,0,3.5,0.4,3.1,6.8c0,0-0.2,6.4-1.4,12.6l1.4,0c1.7,3.3,3.4,6.3,5,9c3.8-3.3,8.6-4.6,13.7,1.9
		c0,0,10.8,11.7,14.7,21.8C1133,743.9,1135.6,743.1,1136.7,742.6z"/>
	<path class="st13" d="M1100.9,719.8c11.3,18.4,21.6,23.1,28.4,23.8c-3.9-10.1-14.7-21.8-14.7-21.8
		C1109.5,715.2,1104.7,716.5,1100.9,719.8z"/>
	<path class="st2" d="M1188.7,760.7c5.7-3.3,7.8-8,7.8-8c0.1,0.1,0.2,0.2,0.3,0.2c-1.1-40.1-47.8-53.7-71.5-53.5
		c0.1,6,0.8,11.5,1.8,16.5C1160,715.2,1178.6,739,1188.7,760.7z"/>
	<path class="st13" d="M1137.4,742.3c11.1,15.7,30.8,20.9,30.8,20.9c9.5,1.8,16.1,0.1,20.5-2.5c-10.1-21.8-28.6-45.5-61.6-44.7
		c2.5,12.3,6.9,21.6,9.7,26.6C1137.2,742.4,1137.4,742.3,1137.4,742.3z"/>
	<path class="st2" d="M1242.9,705.3c6.3-12.4-6.7-37.4-6.7-37.4c0.3,0,0.5-0.1,0.8-0.1c-1.6-1.8-4.1-4.3-7.4-7.1
		c-0.3,0.2-0.6,0.4-0.9,0.5c0.3-0.2,0.6-0.3,0.9-0.5c-9.7-8.2-26.6-18.6-50.3-19.1c-0.3,5.4-1.7,19.9-1.8,21.1
		C1213.7,674.3,1232.9,691.5,1242.9,705.3z"/>
	<path class="st13" d="M1177.4,662.7c-0.9,6.9-2.1,13.7-3.8,19.7c16.9-1.5,38.4,19.3,44.8,25.8c15.7,7.4,22,0.4,22,0.4
		c1-0.9,1.9-2,2.5-3.3C1232.9,691.5,1213.7,674.3,1177.4,662.7z"/>
	<path class="st2" d="M1285.9,659.1c4.5-12.7,12.8-24.5,17.7-30.9c-3.4-0.2-5.5-0.2-5.5-0.2c-19,0.8-34.9,0.9-48.4,0.7
		c-3.6,8.9-11.5,26.4-20.1,31.8c0.6,0.5,1.1,1,1.6,1.4C1242.8,659.6,1264.9,655.9,1285.9,659.1z"/>
	<path class="st13" d="M1231.2,662.1c2.5,2.2,4.4,4.2,5.8,5.7c15.2-1.8,35.2,5.5,46,10.1c-0.5-6.1,0.7-12.6,2.9-18.8
		C1264.9,655.9,1242.8,659.6,1231.2,662.1z"/>
	<path class="st13" d="M1179.7,618.7c0,0,0.2,8.5-0.3,20c0,0.9-0.1,1.9-0.1,2.8c23.7,0.5,40.7,10.9,50.3,19.1c0.7-0.4,1.4-0.9,2-1.5
		c7.8-6.6,14.7-22.1,18-30.3C1188.1,627.8,1179.7,618.7,1179.7,618.7z"/>
	<path class="st13" d="M1169.9,692.4c-0.1,0.1-0.2,0.2-0.3,0.3c-3.1,3.2-12.7,6.2-18.1,6.4c0,0-11.7,0.8-15.9-15.2c0,0,0,0,0-0.1
		c0,0,0,0,0,0c0,0,0,0,0,0l0,0c0,0,0,0,0-0.1c0,0,0,0,0,0c0,0,0,0,0-0.1c0,0,0,0,0,0c0,0,0,0,0-0.1l0,0c0,0,0-0.1,0-0.1c0,0,0,0,0,0
		c0,0,0-0.1,0-0.1c0,0,0,0,0,0c0,0,0-0.1,0-0.1c0,0,0,0,0,0c0-0.1,0-0.1,0-0.2c0,0,0,0,0,0c0-0.8,0.1-2.1,0.4-3.7
		c-3.3-0.9-6.6-1.8-10.1-2.6c0,0-15.4,2.3,0.1-38.8c-9.8,3.2-19.7,5.2-24.9,8.1c-10.6,5.8-12.3,25.8-12.5,28.9
		c4.8,9.7,15.7,24.9,36.6,24.7h0c23.7-0.2,70.5,13.3,71.5,53.5c13.5,10.1,26.9-0.2,26.9-0.2c1-1,1.8-2,2.5-3
		C1218.5,732.2,1202.5,709.2,1169.9,692.4z"/>
	<path class="st14" d="M1340.6,634.8c-0.9-0.3-1.8-0.6-2.7-0.9c-12.5-4.1-26.6-5.2-34.4-5.6c-7.3,9.4-22.2,31-20.6,49.7
		c4.8,2.1,7.7,3.6,7.7,3.6c4.2,1.8,8.1,3.2,11.8,4.5C1286.5,660.9,1291.3,630.3,1340.6,634.8z"/>
	<path class="st15" d="M1351.4,640.1c-0.1,0-0.1,0-0.2,0c-24.9-4.8-37.6,2.8-40.9,14.8c-2.9,10.5,1.4,24.3,11.1,35.9
		c42.9,6.3,41.5-30.2,41.5-30.2C1363.3,651.4,1358.5,644.8,1351.4,640.1z"/>
	<path class="st16" d="M1340.6,634.8c-49.4-4.5-54.2,26.1-38.2,51.2c0.6,0.2,1.2,0.4,1.7,0.6c1.7,0.6,3.3,1,4.9,1.5
		c4.5,1.3,8.6,2.2,12.4,2.7c-9.7-11.6-14-25.4-11.1-35.9c3.3-12,16-19.6,40.9-14.8c0,0,0.1,0,0.1,0
		C1348.2,638,1344.5,636.2,1340.6,634.8z"/>
	<path class="st6" d="M1308.7,717.8c0,0,2.4-2.3,4.3-0.4c2.3,2.2,0.6,3.7-0.2,4.3c-0.8,0.6-5.1,3.4-8.4,12c0,0-0.3,1-1.2,0.4
		c0,0-1.2-0.4-1.1-2C1302.1,732,1302.5,722.5,1308.7,717.8z"/>
	<path class="st6" d="M1336.1,724c0,0,0.1-3.6,2.2-4c2.8-0.5,3.4,1.5,4,3.1c0,0,0.5,1.4,0.2,5.2c-0.3,3.8,0.6,4.6,0.5,4.6
		s2.8,3.7,1.1,5c0,0-1.7,0.9-3.1-0.4C1341,737.5,1335.5,730.7,1336.1,724z"/>
	<path class="st6" d="M1366.7,710.9c0,0-3.5,2.7,2.2,6.8c0,0,2.4,2.2,8.6,5.7c0,0,3,1.7,3.8,0.3c0,0,1-0.9-2.3-4.5
		c0,0-2.9-3.7-7.3-7C1371.7,712.1,1368.6,709.4,1366.7,710.9z"/>
	<path class="st6" d="M1390.5,689.5c0,0-3.5-1.9-5.2,1.2c-2.2,4.1,0.9,4,0.9,4c0,0,1.7-0.2,4,0.8c2.3,0.9,3.4,2.1,3.4,2.1
		s2.1,2.3,4.3,1.6c0,0,2.4-1.2-0.2-3.8C1397.9,695.3,1394.8,691.5,1390.5,689.5z"/>
	<path class="st6" d="M1392.3,659.2c0,0-3.1,0.9-1.3,3.9c0,0,1.9,3.1,4.9,1c2.9-2,4.7-2,6.2-1.7c1.5,0.3,4.9-0.9,2.6-4.3
		C1402.3,654.7,1392.3,659.2,1392.3,659.2z"/>
	<path class="st6" d="M1381.8,634.5c0,0-3.4,1.1-1.4,4.3c2,3.3,5.7,2.1,6.8,1.6c1.2-0.5,6.6-4.9,10-6.2c3.4-1.2,2.5-4.5,1.9-5.3
		c-0.6-0.8-2.2-1.4-5,0C1391.3,630.3,1386.8,633.3,1381.8,634.5z"/>
	<path class="st6" d="M1359.4,613.9c0,0-0.8,3,1.7,3.9c2.5,0.9,4.9,0.6,5.6-1.3c0.8-1.9,0.5-3,2.7-5.4c2.2-2.4,1.6-4.4,0.8-5.4
		c-0.9-1-3.4-1.8-6.1,1.5C1361.4,610.6,1360.7,610.2,1359.4,613.9z"/>
	<path class="st6" d="M1334.3,601.5c0,0-1,3.3,1.5,4.2c2.5,0.8,4.1-0.5,4.6-1.7c0.5-1.3,1.2-6.1,2.4-7.4c1.2-1.3,0.2-3.7-1.3-4.2
		c-1.5-0.5-4.2,0.5-4.8,2.7c-0.6,2.2,0,2.9-1.5,4.6C1335.2,599.7,1334.5,600.5,1334.3,601.5z"/>
	<path class="st6" d="M1304.8,595.9c0,0-0.6,3,2.6,3.3c3.2,0.3,4.1-2.9,4.1-2.9s1.5-5-1.2-8.2c0,0-1.1-1-0.9-3.1
		c0,0,0.4-3.2-2.8-1.3s-1.6,3.8-1.6,3.8S1307.3,589.7,1304.8,595.9z"/>
	<path class="st6" d="M1282.9,705.2c0,0,5-3.4,6.9-1c0,0,3.5,2.7-4.6,6.1c0,0-6.9,2.5-7.5,6.5c0,0-1,2.9-3.8-0.7
		c0,0-2.4-3.2,4.6-7.9C1278.5,708.1,1280.6,706.4,1282.9,705.2z"/>
	<path class="st6" d="M662.9,684.4c0,0-8.4-23.7,12.6-14.7c21,9.1,42.6,55.9,150.1-17.5c0,0,18.2-14.7,23-10.5
		c4.9,4.2-5.9,21.8-5.9,21.8l-44.5,90.6c0,0-26.4,51-82.9,28.6c0,0-30.7-11.9-39.8-51L662.9,684.4z"/>
	<path class="st6" d="M808.9,561.7c0,0,7.3-18.4,31.4-17.5c0,0,8.1-0.7,13.6,6.3c0,0,21.7,17.7-9.4,53.1c0,0-22,19.1-39.1-3.5
		C805.4,600.1,796.3,581.9,808.9,561.7z"/>
	<path class="st6" d="M711.8,631.5c0,0,23.7-6.3,26.5-28.6c0,0,7.6-25-9.8-37.7c0,0-26.5-12.6-40.5,9.1c0,0-10.5,16.8-3.5,41.2
		C684.6,615.4,692.9,632.9,711.8,631.5z"/>
	<path class="st17" d="M687.3,743.6c0,0,11.9,36,48.5,39.5c0,0,21.8,2.8,35-11.5c0,0,13.9-10.5-8.5-17.5c0,0-12.6-3.8-24.8-2.4
		c-12.2,1.4-4.2,5.9-4.2,5.9s7,7-4.9,3.8c-11.9-3.1-25.1-19.9-25.1-19.9S684.8,727.1,687.3,743.6z"/>
	<path class="st6" d="M745.3,839.5l0-2.8c0.1-6.6-0.7-11.8-2.5-15.5c1.4-0.9,2.9-1.4,4.4-1.6c1.1-0.1,1.9,0.1,2.4,0.6
		c0.5,0.6,0.7,1.8,0.7,3.7l-0.3,25.8c-0.9,0.4-1.7,0.7-2.4,0.8c-0.5,0.1-0.9,0-1.1-0.1c-0.2-0.2-0.4-0.5-0.3-1.1l0-2.4
		c-3.6,0.4-12.9,1.9-28.5,4.6c-8.7,1.5-15.2,2.7-19.3,3.5l-0.1,3.7c-1,0.5-2,0.8-2.8,1c-0.6,0.1-1.1,0.1-1.4-0.1
		c-0.3-0.2-0.4-0.6-0.4-1.2l0.2-15.5c0.9-0.4,1.8-0.7,2.6-0.8c0.7-0.1,1.3-0.1,1.6,0.1c0.3,0.2,0.4,0.6,0.4,1.2l0,3.2
		c4.1-0.5,10.8-1.4,19.8-2.8C733.6,841.6,742.4,840.1,745.3,839.5z"/>
	<path class="st6" d="M693.4,806.1c0.1-5.2,0.5-8.8,1.3-10.8c0.8-2,2.3-3.1,4.5-3.3c2-0.1,3.7,0.4,5.2,1.6c-2.9,5.1-4.4,9.8-4.4,14
		c0,3,0.7,5,2.1,6.1c1.5,1.1,3.5,1.5,6.1,1.2c2.7-0.3,4.8-1.2,6.4-2.8c1.6-1.6,3.1-4.4,4.7-8.6c1.8-4.8,3.8-8.5,6-11.1
		c2.2-2.5,5.7-4,10.5-4.4c5.2-0.3,9.1,1,11.6,3.8c2.5,2.8,3.8,7.2,3.7,13.3c-0.1,4.2-0.5,7.5-1.2,9.8c-0.7,2.3-2,3.5-4,3.7
		c-1.8,0.2-3.3-0.3-4.6-1.4c2.8-4.6,4.3-9.2,4.3-13.9c0-3.2-0.5-5.4-1.7-6.7c-1.2-1.3-3.1-1.8-5.7-1.6c-3.1,0.2-5.5,1.4-7.1,3.5
		c-1.6,2.1-3.3,5.5-5.1,10c-1.6,4.4-3.7,7.7-6.1,9.8c-2.5,2.1-5.7,3.4-9.7,3.8c-5.1,0.6-9.2-0.5-12.3-3.3
		C694.8,816.2,693.3,811.9,693.4,806.1z"/>
	<path class="st6" d="M821.9,948.3c-5.4-3.7-8.7-6.4-9.8-8.1c-1.1-1.7-0.4-3.1,2.1-4.2c2.3-1,4.9-1.4,7.9-1.4
		c1.9,4.7,5.1,8.6,9.7,11.6c3.3,2.2,6.6,3.3,9.7,3.4c3.1,0.1,6.2-0.6,9.2-2.1c3.1-1.5,4.6-3.2,4.7-5.1c0.1-1.9-1.4-4.6-4.2-8.1
		c-3.4-4-5.1-7.2-5.3-9.7c-0.2-2.5,2.3-4.9,7.4-7.2c5.7-2.4,11.5-3.3,17.6-2.8c6.2,0.5,12.9,2.6,20.3,6.2c5.3,2.6,9.1,4.9,11.2,6.7
		c2.2,1.8,2.3,3.3,0.2,4.3c-1.9,1-4.4,1.4-7.5,1.3c-2.6-4.4-6.8-8-12.5-10.9c-3.8-2-7.2-3-10.1-3.3c-2.9-0.2-5.7,0.3-8.5,1.5
		c-3.4,1.5-4.9,3.3-4.4,5.3c0.5,2.1,2.4,5,5.7,8.7c3.4,3.8,5,7,4.5,9.7c-0.4,2.7-2.9,5.3-7.6,7.7c-5.9,3-12.6,4.3-19.9,3.7
		C835.2,955.1,828.2,952.6,821.9,948.3z"/>
	<path class="st6" d="M753.4,901l-17.9-12c-0.6-0.4-0.8-0.8-0.6-1c0.2-0.3,0.8-0.6,1.7-0.8c2.2-0.6,5.4-1.2,9.6-1.6
		c4.1-0.5,12.8-1.3,25.8-2.4c12.8-1.1,23.1-2.9,30.8-5.4l3.5,1.7c1.9,0.9,1.4,1.8-1.3,2.7c-3.1,1-7.6,1.8-13.5,2.5
		c-6,0.7-14.3,1.6-25.2,2.6c-11,1-17.9,1.9-20.8,2.7l3.2,2.1c5.1,3.4,10.8,5.7,16.8,7.1c-1.4,1.1-3.1,2-5.1,2.7
		c-1.3,0.4-2.6,0.6-3.7,0.5C755.6,902.1,754.5,901.7,753.4,901z"/>
	<path class="st6" d="M770.9,856.6l-4-2c0.5-0.3,1.1-0.6,1.9-0.8c0.7-0.2,1.3-0.3,1.7-0.3c0.4,0,0.9,0.2,1.5,0.4l14.2,7
		c-0.6,0.4-1.3,0.7-2,1c-0.6,0.2-1.1,0.3-1.6,0.3c-0.5,0-0.9-0.1-1.4-0.4l-4.2-2.1c-3.6,1.1-6.6,2-9.2,2.8l18,9.5
		c-0.6,0.6-1.5,1.1-2.7,1.5c-1,0.4-2.4,0.7-4,0.8c-1.6,0.2-11.3,0.8-29.1,2c-18.2,1.2-27.6,1.7-28.2,1.7c-0.5,0-1.1-0.3-1.7-0.7
		l-2.3-1.5c-0.8-0.6-1.2-1-1-1.4c0.2-0.4,1.2-0.9,3.1-1.5l37-11.7l-3.5-1.9c0.9-0.4,1.8-0.8,2.8-1.1c0.8-0.2,1.4-0.4,1.9-0.4
		c0.5,0,1.1,0.1,1.6,0.4l2.4,1.3C766.4,858.1,769.4,857.1,770.9,856.6z M762.4,864.2c-20.1,6.5-30.7,10-30.6,10.1
		c0.1,0.1,14.5-1.2,42.4-3.7L762.4,864.2z"/>
	<path class="st6" d="M797.8,930.9l-10.1-6.8c6.4-5.8,11.8-10.9,16.4-15.4c4.3-4.2,9.5-8.9,15.5-13.8l-23.7,8.2
		c-9.4,3.2-16.4,5.7-20.7,7.4l2.9,1.9c-0.9,0.6-1.8,1-2.7,1.3c-0.7,0.2-1.3,0.4-1.8,0.3c-0.5,0-1-0.2-1.4-0.5l-10.1-6.8
		c0.8-0.5,1.6-0.8,2.5-1.1c0.8-0.3,1.5-0.4,2-0.4c0.5,0,1,0.2,1.4,0.4l2.1,1.4c4.6-1.4,11.8-3.8,21.5-7.1l30.3-10.2
		c1.5-0.5,2.7-0.8,3.4-0.7c0.7,0,1.7,0.3,3,0.9c2.4,1.2,3.7,1.9,3.8,2.2c0.1,0.3-2.4,3.2-7.7,9.1c-5.8,6.3-12,12.4-18.7,18.1
		c24.5-9.5,37.7-14.7,41.3-16.2l-3.2-1.6c0.5-0.4,1.2-0.8,1.9-1.1c0.7-0.2,1.2-0.4,1.7-0.4c0.5,0,1,0.1,1.6,0.4l12.4,6.2
		c-0.6,0.5-1.3,0.9-2.1,1.2c-0.6,0.2-1.1,0.3-1.6,0.3c-0.5,0-1-0.2-1.6-0.4l-2.9-1.5c-3.9,1.4-14,5.4-31,12.2
		c-9.6,3.8-16.8,6.8-21.3,8.8l3.1,2c-0.9,0.7-1.8,1.2-2.8,1.6c-0.7,0.3-1.4,0.4-1.9,0.4C798.8,931.4,798.3,931.2,797.8,930.9z"/>
	<path class="st6" d="M839.3,508.5c0,0,27.6,12.5,43.2,24.6c0,0,6.3,4.5,9.2,1.2c1.1-1.3,2.7-4.2-2.9-8.6c0,0-9.7-9.4-43.8-24.1
		c0,0-4.8-1.6-6.9,0.9C837.5,503.2,836.2,507.2,839.3,508.5z"/>
	<path class="st6" d="M663.1,543.6c19.8-19.6,39.1-25.4,39.1-25.4s7.3-2.3,8.6,0.1c0.4,0.8,1.3,3.9-0.8,5.6
		c-0.7,0.5-22.3,10.5-40.2,26.9c0,0-3,2.9-8.1,0.5C660,550.5,659.1,547.5,663.1,543.6z"/>
	<path class="st7" d="M887.2,815.9L887.2,815.9c0,0-288.2,65.1-295.1,66.7l-13.6,24.1l298.9-73.3l0.5-0.1L887.2,815.9L887.2,815.9z"
		/>
	<g>
		<path class="st8" d="M862.2,804.1l-0.3-0.1c0,0,0,0-296,58.8l26.2,19.9c3.7-0.8,295.1-66.7,295.1-66.7c0,0,0,0,0,0L862.2,804.1z"
			/>
	</g>
	<path class="st6" d="M755.7,831.7c-2.6,0.8-11,3.1-26,7.1c-9,2.4-15.8,4.2-20.1,5.2l-2.6-1.3c-0.5-0.2-1-0.4-1.5-0.4
		c-0.5,0-1.1,0.1-1.9,0.3c-0.9,0.2-1.6,0.5-2.3,0.9l12.8,6.2c0.5,0.2,1,0.4,1.5,0.4c0.5,0,1.1-0.1,1.7-0.2c0.9-0.3,1.7-0.6,2.5-1
		l-3.1-1.5c4-1.2,10.4-3.1,19-5.5c15.2-4.2,24.1-6.7,27.6-7.5l2,0.9c0.4,0.2,0.9,0.3,1.3,0.3c0.4,0,0.9,0,1.3-0.2
		c0.7-0.2,1.3-0.5,1.9-0.8l-19.2-8.5c-2,0.4-3.6,0.7-5.6,1.1c3,0.9,5.6,2,8.7,3.4L755.7,831.7z"/>
	<path class="st6" d="M776.3,848.7c-0.3-0.1-0.8-0.1-1.4,0.1c-0.7,0.2-1.4,0.5-2,0.9l1.1,3.9c-1.5,0.5-4.4,1.5-8.7,3l-0.6-2.4
		c-0.2-0.6-0.4-0.9-0.8-1c-0.4-0.1-0.9,0-1.7,0.2c-0.9,0.3-1.9,0.7-2.9,1.2l0.9,3.6l-38,12.2c-2,0.6-4.1,1.7-4.7,2.3
		c-0.9,1-0.7,1.9-0.7,1.9l62.5-17.2l-2.3-7.9C776.8,849.1,776.6,848.8,776.3,848.7z"/>
	<polygon class="st8" points="592.1,882.6 578.5,906.7 519.5,906.2 	"/>
	<polygon class="st7" points="565.9,862.7 592.1,882.6 519.5,906.2 	"/>
</g>
<g id="Text">
	<path class="st1" d="M240.4,1155.9l14.3,19.6l-41.8,30.5c-3.2,2.3-5.4,4.2-6.8,5.5c-1.3,1.4-2.4,2.9-3.2,4.5c-0.8,1.9-1,4-0.6,6.4
		c0.4,2.3,1.3,4.5,2.8,6.5c1.7,2.3,3.8,4,6.3,5.1c2.5,1.1,4.9,1.3,7.3,0.7c2.6-0.7,6.1-2.7,10.8-6.1l41.8-30.5l11.2,15.4l-45,32.8
		c-4.4,3.2-8.2,5.4-11.3,6.6c-3.2,1.2-6.7,1.7-10.5,1.5c-3.2-0.2-6.4-0.9-9.6-2.3c-3.2-1.4-6.2-3.3-9.2-5.8
		c-2.9-2.5-5.7-5.5-8.2-8.9c-2.1-2.9-3.8-5.7-5.2-8.6c-1.4-2.8-2.4-5.6-3-8.4c-0.6-2.8-0.9-5.4-0.7-8c0.1-2.6,0.7-5,1.6-7.3
		c1.2-3.2,2.8-5.9,4.9-8.3c2.1-2.4,5.1-5.1,9.2-8L240.4,1155.9z"/>
	<path class="st1" d="M225.1,1282.2l64.4-60.2l27.6,29.6c4.9,5.3,8.3,10.5,10.3,15.6c1.9,5.1,2.3,10.1,1.1,14.7
		c-1.2,4.7-3.9,9-8,12.9c-3.6,3.4-7.6,5.6-12.1,6.8c-4.5,1.2-8.8,1.1-13-0.2c-3.4-1.1-6.5-2.7-9.5-4.8c-3-2.1-6.3-5.1-10-9L266,1277
		l-24.4,22.8L225.1,1282.2z M293.8,1251.1l-15,14l8.1,8.7c3.1,3.3,5.9,5.2,8.4,5.6c2.5,0.4,5.1-0.6,7.7-3.1c2.6-2.4,3.8-5,3.7-7.6
		s-1.7-5.6-4.8-8.9L293.8,1251.1z"/>
	<path class="st1" d="M288.8,1349.4l55.4-68.6l27.1,21.9l-17.2,42.4l38.4-25.3l27,21.8l-55.4,68.6l-18.8-15.2l39.9-49.4l-55.3,36.9
		l-11.2-9l24.8-61.6l-39.9,49.4L288.8,1349.4z"/>
	<path class="st1" d="M457.1,1448.7l18.5-4.4c0.5,4.6,1.8,8.4,4,11.4c2.2,3,5.5,5.5,9.9,7.5c3.8,1.7,7.1,2.5,9.9,2.2
		c2.9-0.3,4.8-1.6,5.8-3.8c1.3-2.9-0.1-6.2-4.2-9.9c-4.1-3.8-8.5-7.6-13-11.5c-4.5-3.9-7.9-8.4-10-13.7c-2.1-5.2-1.5-11.4,1.7-18.4
		c2.3-4.9,5.6-8.8,10.1-11.5c4.4-2.7,9.5-4,15.3-4c5.7,0,11.6,1.4,17.5,4.1c12.2,5.6,19.7,14.2,22.7,25.6l-17.7,4.5
		c-1.1-3.9-2.5-6.9-4.2-9.1c-1.7-2.2-4.2-4.1-7.3-5.5c-3.2-1.5-6.1-2-8.7-1.7c-2.6,0.3-4.4,1.4-5.3,3.4c-1.3,2.8,0.1,6,4.2,9.5
		c4.1,3.6,8.6,7.3,13.4,11.3c4.8,3.9,8.3,8.6,10.4,13.9c2.2,5.3,1.6,11.6-1.8,18.9c-2.5,5.4-6,9.4-10.5,12.3
		c-4.5,2.8-9.7,4.2-15.5,4.2c-5.8,0-11.9-1.5-18.2-4.4C467.6,1471.9,458.6,1461.7,457.1,1448.7z"/>
	<path class="st1" d="M560.2,1415.3l23,7.5l-16,49.2c-1.2,3.7-2,6.6-2.3,8.5c-0.3,1.9-0.3,3.8,0.1,5.6c0.5,2,1.5,3.9,3.2,5.5
		c1.7,1.6,3.7,2.8,6,3.6c2.7,0.9,5.5,1,8.1,0.4c2.7-0.6,4.8-1.8,6.3-3.7c1.7-2,3.4-5.8,5.2-11.2l16-49.2l18.1,5.9l-17.2,52.9
		c-1.7,5.2-3.5,9.2-5.3,12c-1.9,2.8-4.4,5.2-7.6,7.3c-2.7,1.7-5.7,3-9.1,3.7c-3.4,0.8-7,1-10.8,0.7c-3.8-0.3-7.8-1.1-11.9-2.4
		c-3.4-1.1-6.5-2.4-9.3-3.9c-2.8-1.5-5.2-3.2-7.4-5.1c-2.1-1.9-3.9-3.9-5.3-6.1c-1.4-2.2-2.4-4.4-3-6.8c-0.9-3.3-1.2-6.5-0.9-9.6
		c0.3-3.1,1.2-7.1,2.8-11.9L560.2,1415.3z"/>
	<path class="st1" d="M621.8,1526.7l16.8-86.6l37.9,7.3c8,1.5,14.5,3.7,19.4,6.3c4.3,2.3,7.5,5.8,9.6,10.5c2.1,4.7,2.6,9.6,1.6,14.7
		c-1.2,6.2-4.2,11-9,14.3c-2.6,1.9-6.4,3.4-11.3,4.5l8,43l-26.6-5.2l-5-38.1l-10.9-2.1l-6.9,35.8L621.8,1526.7z M659,1461.1
		l-3.5,18.1l14,2.7c3.4,0.7,6.2,0.4,8.4-0.9s3.6-3.3,4.1-6.1c0.6-2.9,0-5.2-1.5-7.2c-1.6-1.9-4.1-3.2-7.5-3.9L659,1461.1z"/>
	<path class="st18" d="M994,1526.7l-28.4,6.9l-22.8-94.2l28.4-6.9L994,1526.7z"/>
	<path class="st18" d="M1091.5,1494.8l-68.8,24.5l-32.4-91.3l67.7-24.1l6.5,18.3l-40.2,14.3l5.9,16.7l38.3-13.6l6.5,18.4l-38.3,13.6
		l6.9,19.5l41.3-14.7L1091.5,1494.8z"/>
	<path class="st18" d="M1180.3,1451l-65,33.2l-44.1-86.3l64-32.7l8.8,17.3l-38,19.4l8.1,15.8l36.2-18.5l8.9,17.4l-36.2,18.5
		l9.4,18.4l39-19.9L1180.3,1451z"/>
	<path class="st18" d="M1262.6,1396l-60.2,41.4l-54.9-79.8l59.2-40.7l11,16l-35.1,24.2l10.1,14.6l33.5-23.1l11.1,16.1l-33.5,23.1
		l11.7,17l36.1-24.9L1262.6,1396z"/>
	<path class="st18" d="M1344.6,1281.9c4.3,4.3,6.9,9.1,7.9,14.4c1,5.3,0.3,10.8-1.9,16.4c-2.2,5.6-5.9,10.9-10.9,16
		c-1.4,1.4-3.2,3.1-5.5,5c-2.2,1.9-5.5,4.1-9.7,6.7c-4.2,2.6-9,4.9-14.3,7l-16.9-16.8c5.6-1.3,10.8-3,15.5-4.9
		c4.8-1.9,9-4.8,12.9-8.7c3.5-3.5,5.2-6.4,5.1-8.6s-0.7-3.8-1.7-4.8c-1.9-1.8-4.3-2.5-7.3-2c-3,0.5-6.9,1.8-11.7,3.9
		c-5.3,2.2-10.3,3.8-15,4.8c-4.7,1-9.3,1-13.9,0c-4.6-1-8.8-3.4-12.7-7.2c-3.7-3.7-6.1-7.9-7.3-12.7c-1.2-4.8-0.8-9.9,1.1-15.5
		c1.9-5.5,5.6-11,10.9-16.3c3.8-3.8,7.7-7,11.7-9.5c4-2.5,7.5-4.4,10.5-5.6c3-1.2,5.2-1.9,6.5-2.2l16.1,16c-4.8,0.8-9.7,2.1-14.7,4
		s-9.5,4.8-13.4,8.7c-2.6,2.6-3.9,4.9-4.1,7.1c-0.2,2.1,0.5,3.9,1.9,5.4c1.4,1.3,3.1,1.9,5.2,1.8c2.1-0.2,5.4-1,9.8-2.6
		c7.7-2.8,14.2-4.8,19.3-6c5.1-1.2,9.9-1.4,14.3-0.6C1336.6,1275.8,1340.7,1278.1,1344.6,1281.9z"/>
	<path class="st18" d="M1413.6,1194.7c6.7,5,10.3,11.3,10.8,18.9s-2.3,15.4-8.4,23.6l-33.7,44.7l-77.4-58.3l28.2-37.4
		c3.6-4.8,7.3-8.7,10.9-11.6c3.6-2.9,7.1-4.8,10.4-5.8c3.3-1,6.4-1.2,9.4-0.6c3,0.6,5.8,1.8,8.4,3.8c2.8,2.1,5,4.7,6.6,7.6
		s2.5,5.8,2.8,8.6c0.3,2.8,0.1,5.3-0.5,7.5c6.1-3.7,11.7-5.8,17-6.1S1408.5,1190.9,1413.6,1194.7z M1359.9,1197
		c-3.7-2.8-7.1-3.4-10.2-1.9c-3.1,1.5-6.6,4.9-10.5,10.1l-3.7,4.9l18.5,14l3.8-5c4-5.3,6.3-9.6,6.8-12.9S1363.6,1199.8,1359.9,1197z
		 M1395,1217.5c-6.6-5-13.6-2.7-20.8,6.9l-7.2,9.5l19.8,14.9l7.2-9.5C1401.2,1229.7,1401.5,1222.4,1395,1217.5z"/>
	<path class="st1" d="M136.6,726.7l-81.6-42.6l4.8-27.1l91.3-11.5l-4.4,24.7l-18,1.9l-4.8,27.2l16.3,7.9L136.6,726.7z M106.6,690.6
		l3-16.8L79,677L106.6,690.6z"/>
	<path class="st1" d="M136.4,643.4l-6.9-17.6c4.5-1.1,8.1-3,10.7-5.6c2.6-2.6,4.6-6.2,6-10.9c1.2-4,1.4-7.3,0.7-10.1
		c-0.7-2.8-2.2-4.5-4.5-5.2c-3-0.9-6.1,1-9.2,5.6c-3.1,4.6-6.3,9.4-9.5,14.5c-3.2,5-7.2,9-12.1,11.8c-4.8,2.8-11,3.1-18.4,0.9
		c-5.2-1.6-9.4-4.3-12.7-8.3c-3.3-4-5.3-8.8-6.1-14.5c-0.8-5.6-0.3-11.6,1.6-17.8c3.8-12.8,11.2-21.4,22.1-26L105,577
		c-3.7,1.6-6.5,3.4-8.4,5.5c-2,2-3.4,4.7-4.4,8c-1,3.3-1.2,6.3-0.5,8.9c0.7,2.6,2.1,4.1,4.1,4.7c2.9,0.9,5.9-1,8.8-5.5
		c2.9-4.6,6-9.5,9.2-14.8c3.2-5.3,7.3-9.4,12.2-12.3c4.9-2.9,11.2-3.2,18.9-0.9c5.6,1.7,10.2,4.5,13.6,8.6c3.4,4,5.5,8.9,6.3,14.7
		c0.8,5.8,0.2,12-1.8,18.6C157.8,629.7,148.9,640.1,136.4,643.4z"/>
	<path class="st1" d="M132.1,558.1c-8.5-3.7-15.2-8.4-20.2-14.1c-5-5.7-8-12.1-8.9-19.1c-1-7,0.1-14,3.2-21.1
		c2.5-5.9,5.9-10.6,9.9-14.2c4.1-3.6,8.7-6.1,13.7-7.6c5.1-1.4,10.4-1.8,15.8-1.3c5.5,0.6,10.9,2,16.4,4.4
		c5.9,2.5,11.1,5.7,15.7,9.4c4.6,3.7,8.2,7.8,10.9,12.5c2.7,4.6,4.2,9.8,4.4,15.4c0.3,5.6-0.9,11.5-3.6,17.6
		c-2.2,5.1-5.1,9.4-8.8,13.1c-3.7,3.6-7.9,6.4-12.9,8.2c-4.9,1.8-10.4,2.5-16.5,2.1C145.3,562.7,138.9,561,132.1,558.1z
		 M142.1,534.9c17.1,7.4,27.5,6.7,31.3-2c2.1-4.9,1.2-9.3-2.7-13.2c-3.9-3.9-10.1-7.7-18.6-11.4c-16.2-7-26.1-6.2-29.9,2.4
		c-1.4,3.2-1.5,6.2-0.2,9.1c1.2,2.8,3.6,5.5,7,7.9C132.4,530.2,136.8,532.6,142.1,534.9z"/>
	<path class="st1" d="M206.9,435.5l12.5-13.3c3.3,3.4,6,6.9,7.9,10.6c1.9,3.7,3.2,7.5,3.8,11.5c0.6,3.9,0.4,7.9-0.4,11.9
		c-0.8,4-2.4,8-4.7,11.8c-2.7,4.7-6.8,9-12,12.8c-5.3,3.8-11.8,5.9-19.7,6.3c-7.8,0.4-16.4-2.2-25.8-7.6
		c-5.5-3.2-10.2-6.9-14.3-11.2c-4.1-4.3-7.1-9-9.2-14.1c-2.1-5.1-2.9-10.4-2.5-16c0.4-5.6,2.3-11.2,5.6-16.9
		c3.4-5.8,7.7-10.3,13-13.5c5.3-3.1,10.7-4.8,16.3-5c5.6-0.2,10.6,1,14.9,3.5L182,426.4c-8.8-3.8-15.1-2.7-18.7,3.6
		c-2.6,4.4-2.4,8.8,0.5,13.2c2.9,4.5,8.7,9.2,17.4,14.3c5.2,3,9.7,5,13.5,6c3.8,1,7.1,0.9,9.8-0.1c2.7-1.1,5-3.1,6.8-6.3
		c1.8-3.1,2.6-6.1,2.2-9c-0.3-2.8-1.1-5.1-2.2-6.9C210.2,439.5,208.7,437.6,206.9,435.5z"/>
	<path class="st1" d="M248.1,430l-71.7-50.7l13.9-19.7l71.7,50.7L248.1,430z"/>
	<path class="st1" d="M263.6,406.2l-49.2-77.8l17.8-21l84.7,35.9l-16.2,19.1l-16.5-7.4l-17.9,21.1l10.1,15L263.6,406.2z M255.8,360
		l11-13.1l-28.1-12.5L255.8,360z"/>
	<path class="st1" d="M336.3,282.4l15.8-9.2c2.2,4.2,3.8,8.3,4.6,12.4c0.8,4.1,0.9,8.1,0.4,12.1c-0.6,3.9-1.8,7.7-3.8,11.3
		c-2,3.6-4.6,7-7.8,10c-4,3.7-9,6.7-15.2,8.8c-6.1,2.2-13,2.3-20.6,0.4c-7.6-1.9-15.1-6.8-22.5-14.6c-4.3-4.6-7.8-9.5-10.5-14.8
		c-2.7-5.3-4.3-10.6-4.9-16.1c-0.6-5.5,0.1-10.8,2.1-16.1c2-5.2,5.4-10.1,10.2-14.6c4.9-4.6,10.4-7.7,16.3-9.2
		c5.9-1.5,11.6-1.6,17-0.1c5.4,1.4,9.9,4,13.3,7.6L315,266.6c-7.4-6.2-13.7-6.8-18.9-1.9c-3.7,3.5-4.8,7.7-3.3,12.8
		c1.5,5.1,5.7,11.3,12.6,18.7c4.1,4.4,7.9,7.6,11.2,9.6c3.4,2,6.5,2.9,9.5,2.7c2.9-0.2,5.7-1.6,8.3-4.1c2.7-2.5,4.2-5.2,4.7-8
		c0.5-2.8,0.4-5.2-0.2-7.2C338.3,287.2,337.5,284.9,336.3,282.4z"/>
	<path class="st1" d="M377.4,288.8l-54.4-69l18.9-14.9l54.4,69L377.4,288.8z"/>
	<path class="st1" d="M378.5,231.2c-5-7.7-8.1-15.4-9.1-22.9c-1-7.6,0-14.5,3-20.8c3-6.3,7.8-11.6,14.3-15.9
		c5.4-3.5,10.7-5.6,16.1-6.4c5.4-0.8,10.6-0.3,15.6,1.3c5,1.6,9.7,4.2,13.9,7.7c4.3,3.5,8,7.7,11.3,12.7c3.5,5.4,6.2,10.9,8,16.5
		c1.8,5.6,2.5,11.1,2.2,16.4c-0.3,5.3-1.9,10.4-4.8,15.3c-2.9,4.8-7.1,9.1-12.7,12.7c-4.6,3-9.5,5-14.5,6.1
		c-5.1,1-10.1,0.9-15.2-0.3c-5.1-1.2-10.1-3.7-14.9-7.4C387,242.4,382.6,237.4,378.5,231.2z M376.7,173.1l-5.2-22.4l17.7-11.5
		l-1.9,27L376.7,173.1z M399.7,217.4c10.2,15.6,19.2,20.8,27.2,15.6c4.5-2.9,6.1-7.1,5-12.5c-1.1-5.4-4.2-12-9.2-19.8
		c-9.6-14.8-18.4-19.6-26.3-14.5c-2.9,1.9-4.7,4.4-5.2,7.4c-0.5,3.1,0,6.6,1.5,10.5C394.2,208.1,396.5,212.5,399.7,217.4z"/>
	<path class="st1" d="M474.7,221.7l-38.5-79L456,133l47.5,26.5l-19.6-40.2l17.1-8.3l38.5,79l-17.1,8.3l-52.6-29.7l21.8,44.7
		L474.7,221.7z"/>
	<path class="st1" d="M691.2,146.6l-9.3-87.4l30.1-3.2c10.8-1.1,20.5,0.5,29,4.9c11.8,6.2,18.6,17.6,20.3,34
		c0.9,8.4,0.2,16-2.2,22.6c-2.4,6.6-6.2,12.1-11.7,16.4c-6.3,4.8-13,7.8-20.1,8.8c-1.1,0.2-3.2,0.5-6.2,0.8L691.2,146.6z
		 M707.7,74.3l5.6,52.6c6.4-0.7,11.3-2.2,14.9-4.3c3.5-2.2,5.9-5.3,7.2-9.4c1.2-4.1,1.5-9.5,0.8-16.3c-1.3-12.2-5.9-19.6-13.9-22.1
		c-3.3-1.1-7.5-1.3-12.7-0.8L707.7,74.3z"/>
	<path class="st1" d="M772.9,138.6l1.4-87.8l63.2,1l-0.3,18.4l-39.1-0.6l-0.3,15.7l24.9,0.4l-0.3,18.4l-24.9-0.4l-0.3,16.9l40.9,0.7
		l-0.3,18.4L772.9,138.6z"/>
	<path class="st1" d="M988.5,166.2l28.9-83l59.7,20.8l-6.1,17.4l-36.9-12.9l-5.2,14.8l23.5,8.2l-6.1,17.4l-23.5-8.2l-5.6,15.9
		l38.7,13.5l-6.1,17.4L988.5,166.2z"/>
	<path class="st1" d="M1055.5,190.3l37.4-79.5l21.8,10.3l-29.6,62.8l34,16l-7.9,16.7L1055.5,190.3z"/>
	<path class="st1" d="M1116,219.4l45.5-75.1l54.1,32.7l-9.5,15.8l-33.4-20.3l-8.1,13.4l21.3,12.9l-9.5,15.8l-21.3-12.9l-8.7,14.4
		l35,21.2l-9.5,15.8L1116,219.4z"/>
	<path class="st1" d="M1237.4,263.9L1249,278c-3.8,2.9-7.6,5-11.5,6.5c-3.9,1.5-7.9,2.2-11.9,2.3c-4,0.1-7.9-0.6-11.8-1.9
		c-3.9-1.4-7.6-3.4-11.2-6.1c-4.3-3.3-8-7.8-11.1-13.6c-3.1-5.7-4.4-12.5-3.7-20.3c0.6-7.8,4.2-16,10.8-24.6
		c3.9-5,8.2-9.3,12.9-12.8c4.8-3.5,9.8-5.9,15.1-7.4c5.3-1.4,10.7-1.6,16.2-0.5c5.5,1.1,10.8,3.7,16.1,7.7c5.4,4.1,9.3,9,11.7,14.6
		c2.5,5.6,3.4,11.2,2.9,16.8c-0.5,5.6-2.3,10.4-5.4,14.4l-18.6-12.8c4.9-8.3,4.5-14.6-1.2-19c-4-3.1-8.4-3.5-13.2-1.2
		c-4.8,2.3-10.3,7.5-16.4,15.4c-3.7,4.8-6.2,9-7.7,12.6c-1.4,3.7-1.8,6.9-1.1,9.8c0.7,2.8,2.5,5.4,5.3,7.6c2.9,2.2,5.8,3.3,8.6,3.4
		c2.9,0,5.2-0.4,7.1-1.3C1232.9,266.7,1235,265.5,1237.4,263.9z"/>
	<path class="st1" d="M1249.8,316.5l48.2-50l-17.2-16.5l12.8-13.3l51.7,49.8l-12.8,13.3l-17.2-16.5l-48.2,50L1249.8,316.5z"/>
	<path class="st1" d="M1290,356.1l68-55.6l24.3,29.8c5.1,6.3,8.7,12,10.8,17.2c1.8,4.5,2.1,9.2,0.7,14.2c-1.4,4.9-4.1,9-8.1,12.3
		c-4.9,4-10.2,5.7-16,5.3c-3.2-0.2-7.1-1.5-11.5-3.7l-21.3,38l-17.1-20.9l20.5-32.4l-7-8.6l-28.1,23L1290,356.1z M1360.2,329.6
		l-14.2,11.6l9,11c2.2,2.7,4.5,4.2,7,4.7c2.5,0.5,4.8-0.2,7.1-2.1c2.2-1.8,3.4-4,3.4-6.5c0-2.5-1.1-5.1-3.3-7.8L1360.2,329.6z"/>
	<path class="st1" d="M1375.7,392.4c7.8-4.9,15.5-7.9,23.1-8.8c7.6-0.9,14.5,0.2,20.8,3.3c6.3,3.1,11.5,8,15.7,14.6
		c3.4,5.4,5.5,10.8,6.2,16.2c0.7,5.4,0.2,10.6-1.5,15.6c-1.7,5-4.3,9.6-7.9,13.8s-7.8,7.9-12.9,11.1c-5.4,3.4-10.9,6-16.6,7.7
		c-5.6,1.7-11.1,2.4-16.5,2c-5.3-0.4-10.4-2.1-15.2-5c-4.8-2.9-9-7.2-12.5-12.9c-3-4.7-4.9-9.5-5.8-14.6c-0.9-5.1-0.8-10.1,0.5-15.2
		c1.3-5.1,3.8-10,7.6-14.7S1369.4,396.3,1375.7,392.4z M1389.2,413.7c-15.7,9.9-21.1,18.9-16,26.9c2.8,4.5,7,6.2,12.4,5.2
		c5.5-1,12.1-4,19.9-9c14.9-9.4,19.9-18.1,14.9-26c-1.9-3-4.3-4.7-7.4-5.3c-3-0.6-6.6-0.1-10.5,1.3
		C1398.6,408.4,1394.1,410.6,1389.2,413.7z M1433.8,391.4l22.5-4.9l11.3,17.8l-27-2.3L1433.8,391.4z"/>
	<path class="st1" d="M1383.9,488.6l79.5-37.4l9.4,19.9l-27.2,47.1l40.4-19l8.1,17.2l-79.5,37.4l-8.1-17.2l30.5-52.2l-45.1,21.2
		L1383.9,488.6z"/>
	<path class="st1" d="M1418.3,565.9l82.6-29.9l8.2,22.7l-82.6,29.9L1418.3,565.9z"/>
	<path class="st1" d="M1475.2,643.8l0.6,18.2c-4.7,0-9.1-0.6-13.1-1.9c-4-1.2-7.6-3-10.8-5.4c-3.2-2.4-5.9-5.3-8.2-8.7
		c-2.3-3.4-4-7.3-5.1-11.7c-1.4-5.3-1.6-11.1-0.6-17.5c1-6.4,4.2-12.6,9.4-18.4c5.3-5.8,13.1-10.1,23.6-12.9
		c6.1-1.6,12.1-2.4,18-2.2c5.9,0.1,11.4,1.3,16.5,3.4c5.1,2.1,9.5,5.3,13.1,9.5c3.7,4.2,6.4,9.5,8,15.9c1.7,6.5,1.9,12.8,0.4,18.7
		c-1.5,5.9-4.1,11-8,15.1c-3.8,4.1-8.2,6.8-13,8.1l-6.9-21.5c8.9-3.6,12.5-8.8,10.7-15.8c-1.3-4.9-4.5-7.9-9.8-9
		c-5.2-1.1-12.7-0.3-22.4,2.2c-5.8,1.5-10.4,3.3-13.8,5.4c-3.4,2-5.7,4.4-6.8,7.1c-1.2,2.7-1.3,5.8-0.4,9.2c0.9,3.5,2.5,6.2,4.8,7.9
		c2.3,1.8,4.4,2.9,6.5,3.3C1470,643.3,1472.4,643.6,1475.2,643.8z"/>
	<path class="st1" d="M1449.2,666.8l90.9,14.8l3.9,27.2l-83.1,39.5l-3.6-24.8l16.5-7.4l-3.9-27.4l-17.9-2.4L1449.2,666.8z
		 M1488.9,691.6l2.4,16.9l28-12.7L1488.9,691.6z"/>
</g>
</svg>
