<?xml version="1.0" encoding="utf-8"?>
<!-- Generator: Adobe Illustrator 22.0.1, SVG Export Plug-In . SVG Version: 6.00 Build 0)  -->
<svg version="1.1" id="Layer_1" xmlns="http://www.w3.org/2000/svg" xmlns:xlink="http://www.w3.org/1999/xlink" x="0px" y="0px"
	 viewBox="0 0 8418 3250" style="enable-background:new 0 0 8418 3250;" xml:space="preserve">
<path d="M1-2.1v3248h8416V-2.1H1z M8072.2,2918H345.8V325.8h7726.4V2918z"/>
<path d="M7369.6,1937.3v277.4h-442.9V640.8H1251.4L624.5,2632.4H1075l110.8-394.4h320.5v394.4h436.6V1042.9h106.9v1589.5h0.5h1451
	v-417.7h-928V1832h564.2v-417.7h-564.2v-355.7h1365v1573.9h546.7V1058.5h489.5v1573.9h1304.1v-417.7h-757.3V1832h564.2v-417.7
	h-564.2v-355.7h858.7v5.4h5.5v1150.8v417.7h1391.9h4.1v-695.1H7369.6z M1505.2,1155.1v665.2h-194l193.9-669.2l0.6,2.1L1505.2,1155.1
	z"/>
</svg>
